<svg id="svg" version="1.1" xmlns="http://www.w3.org/2000/svg" xmlns:xlink="http://www.w3.org/1999/xlink" width="400" height="280" viewBox="0, 0, 400,280"><g id="svgg"><path id="path0" d="M2.521 3.120 C 2.521 5.769,2.447 6.295,2.031 6.599 C 1.614 6.903,1.526 7.536,1.442 10.810 C 1.370 13.630,1.238 14.768,0.952 15.055 C 0.653 15.354,0.560 16.400,0.560 19.488 C 0.560 21.995,0.454 23.529,0.280 23.529 C -0.170 23.529,-0.100 59.297,0.350 59.478 C 0.630 59.591,0.630 59.624,0.350 59.642 C -0.062 59.668,-0.131 61.064,0.280 61.064 C 0.453 61.064,0.560 62.474,0.560 64.732 C 0.560 68.013,0.613 68.414,1.059 68.530 C 1.490 68.643,1.542 68.922,1.447 70.603 C 1.311 73.010,1.567 74.510,2.114 74.510 C 2.438 74.510,2.521 74.997,2.521 76.917 C 2.521 79.089,2.576 79.338,3.081 79.471 C 3.573 79.599,3.641 79.853,3.641 81.545 C 3.641 83.072,3.729 83.473,4.062 83.473 C 4.395 83.473,4.482 83.878,4.482 85.434 C 4.482 87.208,4.535 87.395,5.042 87.395 C 5.545 87.395,5.602 87.582,5.602 89.224 C 5.602 90.592,5.708 91.095,6.022 91.215 C 6.296 91.320,6.443 91.756,6.443 92.467 C 6.443 93.184,6.634 93.749,7.003 94.118 C 7.337 94.452,7.563 95.051,7.563 95.605 C 7.563 96.114,7.748 96.776,7.974 97.075 C 8.200 97.374,8.390 97.977,8.394 98.416 C 8.401 98.972,8.572 99.256,8.964 99.359 C 9.416 99.477,9.524 99.741,9.524 100.731 C 9.524 101.653,9.662 102.043,10.084 102.306 C 10.458 102.540,10.644 102.959,10.644 103.569 C 10.644 104.194,10.777 104.482,11.064 104.482 C 11.358 104.482,11.485 104.777,11.485 105.462 C 11.485 106.256,11.591 106.443,12.045 106.443 C 12.510 106.443,12.605 106.629,12.605 107.543 C 12.605 108.148,12.794 108.833,13.025 109.064 C 13.256 109.295,13.445 109.682,13.445 109.924 C 13.445 110.166,13.697 110.616,14.006 110.924 C 14.314 111.232,14.566 111.723,14.566 112.015 C 14.566 112.306,14.755 112.618,14.986 112.706 C 15.217 112.795,15.406 113.198,15.406 113.603 C 15.406 114.103,15.586 114.385,15.966 114.485 C 16.368 114.590,16.527 114.867,16.527 115.465 C 16.527 116.063,16.685 116.340,17.087 116.445 C 17.485 116.550,17.647 116.828,17.647 117.408 C 17.647 117.876,17.827 118.294,18.067 118.386 C 18.298 118.475,18.487 118.735,18.487 118.964 C 18.487 119.193,18.739 119.446,19.048 119.527 C 19.438 119.629,19.608 119.909,19.608 120.451 C 19.608 120.884,19.794 121.300,20.028 121.390 C 20.259 121.478,20.448 121.744,20.448 121.980 C 20.448 122.222,20.692 122.409,21.008 122.409 C 21.328 122.409,21.569 122.596,21.569 122.844 C 21.569 123.498,22.779 125.486,23.179 125.488 C 23.372 125.489,23.529 125.742,23.529 126.050 C 23.529 126.399,23.716 126.611,24.023 126.611 C 24.505 126.611,24.841 127.073,25.501 128.641 C 25.679 129.065,26.002 129.412,26.218 129.412 C 26.434 129.412,26.611 129.664,26.611 129.972 C 26.611 130.283,26.797 130.532,27.031 130.532 C 27.262 130.532,27.451 130.713,27.451 130.934 C 27.451 131.154,27.703 131.415,28.011 131.513 C 28.319 131.610,28.571 131.871,28.571 132.092 C 28.571 132.312,28.761 132.493,28.992 132.493 C 29.223 132.493,29.412 132.694,29.412 132.939 C 29.412 133.185,29.664 133.452,29.972 133.532 C 30.280 133.613,30.532 133.853,30.532 134.066 C 30.532 134.279,30.784 134.454,31.092 134.454 C 31.466 134.454,31.653 134.641,31.653 135.014 C 31.653 135.325,31.839 135.574,32.073 135.574 C 32.304 135.574,32.493 135.763,32.493 135.994 C 32.493 136.228,32.742 136.415,33.053 136.415 C 33.427 136.415,33.613 136.601,33.613 136.975 C 33.613 137.286,33.800 137.535,34.034 137.535 C 34.265 137.535,34.454 137.736,34.454 137.981 C 34.454 138.227,34.706 138.494,35.014 138.574 C 35.322 138.655,35.574 138.895,35.574 139.108 C 35.574 139.321,35.826 139.496,36.134 139.496 C 36.443 139.496,36.695 139.678,36.695 139.901 C 36.695 140.123,37.041 140.471,37.465 140.674 L 38.235 141.043 38.415 148.584 C 38.570 155.051,38.659 156.173,39.046 156.455 C 39.414 156.725,39.496 157.372,39.496 160.026 C 39.496 163.022,39.538 163.281,40.056 163.445 C 40.558 163.605,40.616 163.869,40.616 165.994 C 40.616 167.843,40.709 168.400,41.036 168.526 C 41.350 168.647,41.457 169.148,41.457 170.504 C 41.457 172.086,41.529 172.340,42.017 172.468 C 42.504 172.595,42.577 172.850,42.577 174.411 C 42.577 175.750,42.684 176.249,42.997 176.369 C 43.269 176.474,43.417 176.908,43.417 177.598 C 43.417 178.938,43.647 179.552,44.148 179.552 C 44.428 179.552,44.538 179.938,44.538 180.922 C 44.538 181.827,44.669 182.343,44.923 182.441 C 45.135 182.522,45.396 183.173,45.503 183.888 C 45.610 184.607,45.876 185.255,46.098 185.340 C 46.334 185.431,46.499 185.876,46.499 186.426 C 46.499 187.111,46.647 187.404,47.059 187.535 C 47.470 187.666,47.619 187.959,47.619 188.640 C 47.619 189.150,47.808 189.724,48.039 189.916 C 48.270 190.108,48.459 190.702,48.459 191.237 C 48.459 191.974,48.595 192.245,49.020 192.356 C 49.436 192.465,49.580 192.738,49.580 193.420 C 49.580 193.940,49.747 194.402,49.965 194.485 C 50.176 194.567,50.434 195.084,50.538 195.636 C 50.651 196.240,50.887 196.639,51.133 196.639 C 51.392 196.639,51.541 196.923,51.541 197.417 C 51.541 197.848,51.790 198.409,52.101 198.675 C 52.409 198.938,52.661 199.471,52.661 199.857 C 52.661 200.295,52.819 200.560,53.081 200.560 C 53.315 200.560,53.501 200.809,53.501 201.120 C 53.501 201.429,53.754 201.933,54.062 202.241 C 54.370 202.549,54.622 202.990,54.622 203.221 C 54.622 203.452,54.811 203.641,55.042 203.641 C 55.325 203.641,55.462 203.924,55.462 204.508 C 55.462 205.139,55.614 205.414,56.022 205.521 C 56.416 205.624,56.583 205.903,56.583 206.461 C 56.583 206.898,56.750 207.356,56.954 207.479 C 57.158 207.602,57.406 207.924,57.505 208.193 C 57.604 208.463,57.879 208.683,58.114 208.683 C 58.383 208.683,58.543 208.940,58.543 209.371 C 58.543 210.040,59.701 211.485,60.237 211.485 C 60.384 211.485,60.504 211.875,60.504 212.351 C 60.504 212.982,60.656 213.258,61.064 213.364 C 61.374 213.445,61.625 213.746,61.625 214.038 C 61.625 214.328,61.814 214.566,62.045 214.566 C 62.276 214.566,62.465 214.754,62.465 214.984 C 62.465 215.213,62.717 215.559,63.025 215.751 C 63.333 215.944,63.585 216.390,63.585 216.743 C 63.585 217.096,63.775 217.457,64.006 217.546 C 64.237 217.634,64.426 217.883,64.426 218.097 C 64.426 218.312,64.678 218.487,64.986 218.487 C 65.344 218.487,65.546 218.674,65.546 219.004 C 65.546 219.288,65.798 219.749,66.106 220.028 C 66.415 220.307,66.667 220.709,66.667 220.921 C 66.667 221.133,66.856 221.379,67.087 221.467 C 67.318 221.556,67.507 221.796,67.507 222.000 C 67.507 222.204,67.759 222.451,68.067 222.549 C 68.375 222.647,68.627 222.907,68.627 223.128 C 68.627 223.349,68.817 223.529,69.048 223.529 C 69.279 223.529,69.468 223.730,69.468 223.976 C 69.468 224.221,69.720 224.488,70.028 224.569 C 70.336 224.649,70.588 224.890,70.588 225.103 C 70.588 225.316,70.777 225.490,71.008 225.490 C 71.239 225.490,71.430 225.711,71.433 225.980 C 71.435 226.250,72.191 227.275,73.113 228.257 C 74.035 229.240,74.790 230.154,74.790 230.288 C 74.790 230.422,74.979 230.532,75.210 230.532 C 75.441 230.532,75.630 230.653,75.630 230.800 C 75.630 231.147,76.976 232.493,77.324 232.493 C 77.471 232.493,77.591 232.694,77.591 232.939 C 77.591 233.185,77.843 233.452,78.151 233.532 C 78.459 233.613,78.711 233.853,78.711 234.066 C 78.711 234.279,78.822 234.454,78.956 234.454 C 79.091 234.454,79.752 234.958,80.427 235.574 C 81.101 236.190,81.873 236.695,82.143 236.695 C 82.412 236.695,82.633 236.884,82.633 237.115 C 82.633 237.346,82.822 237.535,83.053 237.535 C 83.284 237.535,83.473 237.736,83.473 237.981 C 83.473 238.227,83.725 238.494,84.034 238.574 C 84.342 238.655,84.594 238.895,84.594 239.108 C 84.594 239.321,84.783 239.496,85.014 239.496 C 85.245 239.496,85.434 239.697,85.434 239.942 C 85.434 240.188,85.686 240.455,85.994 240.535 C 86.303 240.616,86.555 240.856,86.555 241.069 C 86.555 241.282,86.792 241.457,87.082 241.457 C 87.374 241.457,87.675 241.707,87.756 242.017 C 87.863 242.425,88.138 242.577,88.769 242.577 C 89.449 242.577,89.636 242.698,89.636 243.137 C 89.636 243.448,89.823 243.697,90.056 243.697 C 90.287 243.697,90.476 243.887,90.476 244.118 C 90.476 244.351,90.725 244.538,91.036 244.538 C 91.362 244.538,91.597 244.725,91.597 244.984 C 91.597 245.230,91.840 245.494,92.137 245.572 C 92.435 245.650,92.746 245.890,92.829 246.106 C 92.912 246.322,93.299 246.499,93.689 246.499 C 94.151 246.499,94.398 246.654,94.398 246.945 C 94.398 247.191,94.650 247.457,94.958 247.538 C 95.266 247.618,95.518 247.859,95.518 248.072 C 95.518 248.285,95.742 248.459,96.016 248.459 C 96.290 248.459,96.730 248.711,96.994 249.020 C 97.258 249.328,97.727 249.580,98.036 249.580 C 98.365 249.580,98.599 249.766,98.599 250.026 C 98.599 250.272,98.852 250.539,99.160 250.619 C 99.468 250.700,99.720 250.940,99.720 251.153 C 99.720 251.397,100.031 251.541,100.560 251.541 C 101.142 251.541,101.401 251.678,101.401 251.987 C 101.401 252.233,101.653 252.499,101.961 252.580 C 102.269 252.660,102.521 252.901,102.521 253.114 C 102.521 253.370,102.853 253.501,103.501 253.501 C 104.295 253.501,104.482 253.608,104.482 254.062 C 104.482 254.425,104.669 254.622,105.012 254.622 C 105.304 254.622,105.615 254.811,105.704 255.042 C 105.798 255.288,106.218 255.462,106.714 255.462 C 107.376 255.462,107.563 255.585,107.563 256.022 C 107.563 256.476,107.750 256.583,108.543 256.583 C 109.254 256.583,109.524 256.706,109.524 257.029 C 109.524 257.275,109.776 257.541,110.084 257.622 C 110.392 257.702,110.644 257.943,110.644 258.156 C 110.644 258.409,110.972 258.543,111.592 258.543 C 112.304 258.543,112.576 258.683,112.686 259.104 C 112.793 259.512,113.068 259.664,113.699 259.664 C 114.283 259.664,114.566 259.801,114.566 260.084 C 114.566 260.377,114.862 260.504,115.546 260.504 C 116.340 260.504,116.527 260.611,116.527 261.064 C 116.527 261.518,116.713 261.625,117.507 261.625 C 118.192 261.625,118.487 261.751,118.487 262.045 C 118.487 262.306,118.752 262.465,119.188 262.465 C 119.600 262.465,119.888 262.626,119.888 262.855 C 119.888 263.345,120.498 263.585,121.744 263.585 C 122.512 263.585,122.697 263.687,122.631 264.076 C 122.567 264.458,122.779 264.585,123.599 264.653 C 124.287 264.710,124.650 264.879,124.650 265.143 C 124.650 265.417,124.964 265.546,125.630 265.546 C 126.424 265.546,126.611 265.653,126.611 266.106 C 126.611 266.560,126.797 266.667,127.591 266.667 C 128.276 266.667,128.571 266.793,128.571 267.087 C 128.571 267.447,130.162 267.707,131.410 267.551 C 131.507 267.539,131.570 267.745,131.550 268.008 C 131.522 268.368,131.774 268.509,132.563 268.574 C 133.250 268.631,133.613 268.801,133.613 269.065 C 133.613 269.360,133.978 269.468,134.981 269.468 C 136.114 269.468,136.374 269.564,136.496 270.028 C 136.602 270.436,136.878 270.588,137.509 270.588 C 138.002 270.588,138.617 270.830,138.936 271.148 C 139.303 271.516,139.869 271.709,140.582 271.709 C 141.206 271.709,141.817 271.888,142.017 272.129 C 142.226 272.381,142.839 272.549,143.548 272.549 C 144.375 272.549,144.884 272.718,145.238 273.109 C 145.609 273.519,146.101 273.669,147.072 273.669 C 147.994 273.669,148.449 273.798,148.561 274.090 C 148.676 274.391,149.148 274.510,150.228 274.510 C 151.378 274.510,151.854 274.642,152.241 275.070 C 152.625 275.494,153.104 275.630,154.215 275.630 C 155.261 275.630,155.729 275.751,155.844 276.050 C 155.968 276.375,156.510 276.471,158.222 276.471 C 160.203 276.471,160.454 276.530,160.585 277.031 C 160.718 277.536,160.967 277.591,163.139 277.591 C 165.010 277.591,165.546 277.678,165.546 277.981 C 165.546 278.575,166.197 278.711,169.041 278.711 C 171.101 278.711,171.683 278.800,171.810 279.132 C 171.943 279.478,172.666 279.552,175.902 279.552 C 178.335 279.552,179.832 279.659,179.832 279.832 C 179.832 280.016,186.648 280.112,199.720 280.112 C 212.792 280.112,219.608 280.016,219.608 279.832 C 219.608 279.658,221.198 279.552,223.818 279.552 C 227.303 279.552,228.057 279.479,228.190 279.132 C 228.317 278.800,228.899 278.711,230.959 278.711 C 233.803 278.711,234.454 278.575,234.454 277.981 C 234.454 277.673,235.051 277.591,237.281 277.591 C 239.873 277.591,240.121 277.544,240.255 277.031 C 240.387 276.527,240.637 276.471,242.759 276.471 C 244.595 276.471,245.151 276.378,245.277 276.050 C 245.398 275.734,245.909 275.630,247.350 275.630 C 249.016 275.630,249.285 275.558,249.440 275.070 C 249.595 274.581,249.864 274.510,251.559 274.510 C 253.099 274.510,253.501 274.423,253.501 274.090 C 253.501 273.768,253.857 273.669,255.019 273.669 C 256.794 273.669,257.423 273.479,257.423 272.939 C 257.423 272.653,257.833 272.549,258.964 272.549 C 260.087 272.549,260.504 272.444,260.504 272.163 C 260.504 271.889,261.008 271.740,262.223 271.652 C 263.399 271.567,264.049 271.379,264.284 271.058 C 264.494 270.771,265.015 270.588,265.624 270.588 C 266.896 270.588,267.507 270.351,267.507 269.858 C 267.507 269.576,267.897 269.468,268.908 269.468 C 269.966 269.468,270.308 269.365,270.308 269.048 C 270.308 268.744,270.619 268.627,271.429 268.627 C 272.176 268.627,272.736 268.441,273.109 268.067 C 273.423 267.753,274.043 267.507,274.519 267.507 C 275.015 267.507,275.435 267.332,275.529 267.087 C 275.639 266.800,276.088 266.667,276.947 266.667 C 277.968 266.667,278.231 266.562,278.350 266.106 C 278.459 265.691,278.732 265.546,279.410 265.546 C 279.913 265.546,280.480 265.357,280.672 265.126 C 280.864 264.895,281.373 264.706,281.804 264.706 C 282.871 264.706,283.473 264.443,283.473 263.976 C 283.473 263.716,283.803 263.585,284.454 263.585 C 285.247 263.585,285.434 263.479,285.434 263.025 C 285.434 262.561,285.621 262.465,286.520 262.465 C 287.144 262.465,287.755 262.286,287.955 262.045 C 288.147 261.814,288.741 261.625,289.276 261.625 C 290.013 261.625,290.284 261.489,290.395 261.064 C 290.505 260.643,290.777 260.504,291.489 260.504 C 292.145 260.504,292.437 260.375,292.437 260.084 C 292.437 259.801,292.720 259.664,293.304 259.664 C 293.935 259.664,294.210 259.512,294.317 259.104 C 294.427 258.681,294.699 258.543,295.420 258.543 C 296.011 258.543,296.438 258.383,296.537 258.123 C 296.626 257.892,296.999 257.703,297.367 257.703 C 297.734 257.703,298.192 257.451,298.384 257.143 C 298.601 256.795,299.038 256.583,299.533 256.583 C 300.097 256.583,300.376 256.417,300.479 256.022 C 300.583 255.626,300.861 255.462,301.433 255.462 C 301.964 255.462,302.241 255.318,302.241 255.042 C 302.241 254.809,302.490 254.622,302.801 254.622 C 303.175 254.622,303.361 254.435,303.361 254.062 C 303.361 253.607,303.548 253.501,304.351 253.501 C 304.971 253.501,305.400 253.345,305.501 253.081 C 305.594 252.838,306.014 252.661,306.499 252.661 C 307.059 252.661,307.379 252.499,307.467 252.171 C 307.540 251.901,308.221 251.395,308.982 251.045 C 309.742 250.695,310.364 250.223,310.364 249.995 C 310.364 249.766,310.606 249.580,310.901 249.580 C 311.736 249.580,312.325 249.278,312.325 248.850 C 312.325 248.635,312.577 248.459,312.885 248.459 C 313.196 248.459,313.445 248.273,313.445 248.039 C 313.445 247.806,313.694 247.619,314.006 247.619 C 314.314 247.619,314.818 247.367,315.126 247.059 C 315.434 246.751,315.875 246.499,316.106 246.499 C 316.338 246.499,316.527 246.310,316.527 246.078 C 316.527 245.847,316.716 245.658,316.947 245.658 C 317.180 245.658,317.367 245.409,317.367 245.098 C 317.367 244.645,317.554 244.538,318.347 244.538 C 318.995 244.538,319.328 244.406,319.328 244.150 C 319.328 243.937,319.580 243.697,319.888 243.616 C 320.196 243.536,320.448 243.269,320.448 243.023 C 320.448 242.764,320.683 242.577,321.008 242.577 C 321.382 242.577,321.569 242.390,321.569 242.017 C 321.569 241.706,321.755 241.457,321.989 241.457 C 322.220 241.457,322.409 241.268,322.409 241.036 C 322.409 240.803,322.658 240.616,322.969 240.616 C 323.277 240.616,323.760 240.386,324.041 240.105 C 324.322 239.823,324.764 239.512,325.021 239.413 C 325.279 239.314,325.490 239.103,325.490 238.944 C 325.490 238.785,325.671 238.655,325.891 238.655 C 326.112 238.655,326.373 238.403,326.471 238.095 C 326.568 237.787,326.829 237.535,327.050 237.535 C 327.270 237.535,327.451 237.354,327.451 237.134 C 327.451 236.913,327.703 236.652,328.011 236.555 C 328.319 236.457,328.571 236.196,328.571 235.976 C 328.571 235.755,328.761 235.574,328.992 235.574 C 329.225 235.574,329.412 235.325,329.412 235.014 C 329.412 234.698,329.599 234.454,329.841 234.454 C 330.077 234.454,330.351 234.233,330.450 233.964 C 330.549 233.694,330.797 233.373,331.001 233.249 C 331.205 233.126,331.373 232.717,331.373 232.339 C 331.373 231.839,331.525 231.653,331.933 231.653 C 332.306 231.653,332.493 231.466,332.493 231.092 C 332.493 230.719,332.680 230.532,333.053 230.532 C 333.361 230.532,333.613 230.357,333.613 230.142 C 333.613 229.927,333.803 229.679,334.034 229.591 C 334.265 229.502,334.454 229.236,334.454 229.000 C 334.454 228.758,334.698 228.571,335.014 228.571 C 335.387 228.571,335.574 228.385,335.574 228.011 C 335.574 227.700,335.761 227.451,335.994 227.451 C 336.228 227.451,336.415 227.202,336.415 226.891 C 336.415 226.583,336.594 226.331,336.812 226.331 C 337.031 226.331,337.293 225.952,337.395 225.490 C 337.496 225.028,337.759 224.650,337.977 224.650 C 338.196 224.650,338.375 224.398,338.375 224.090 C 338.375 223.716,338.562 223.529,338.936 223.529 C 339.309 223.529,339.496 223.343,339.496 222.969 C 339.496 222.661,339.679 222.409,339.903 222.409 C 340.147 222.409,340.385 222.015,340.495 221.429 C 340.600 220.867,340.845 220.448,341.068 220.448 C 341.282 220.448,341.457 220.259,341.457 220.028 C 341.457 219.797,341.650 219.608,341.886 219.608 C 342.121 219.608,342.396 219.387,342.495 219.118 C 342.594 218.848,342.842 218.527,343.046 218.403 C 343.250 218.280,343.417 217.808,343.417 217.353 C 343.417 216.713,343.544 216.527,343.978 216.527 C 344.351 216.527,344.538 216.340,344.538 215.966 C 344.538 215.655,344.725 215.406,344.958 215.406 C 345.251 215.406,345.378 215.110,345.378 214.426 C 345.378 213.632,345.485 213.445,345.938 213.445 C 346.246 213.445,346.499 213.270,346.499 213.055 C 346.499 212.841,346.676 212.597,346.892 212.514 C 347.109 212.431,347.371 211.976,347.475 211.504 C 347.579 211.031,347.843 210.644,348.061 210.644 C 348.280 210.644,348.459 210.406,348.459 210.114 C 348.459 209.822,348.637 209.516,348.853 209.433 C 349.070 209.350,349.332 208.895,349.436 208.422 C 349.539 207.950,349.803 207.563,350.022 207.563 C 350.288 207.563,350.420 207.247,350.420 206.615 C 350.420 205.903,350.559 205.631,350.980 205.521 C 351.388 205.414,351.541 205.139,351.541 204.508 C 351.541 203.924,351.678 203.641,351.961 203.641 C 352.192 203.641,352.381 203.452,352.381 203.221 C 352.381 202.990,352.633 202.549,352.941 202.241 C 353.249 201.933,353.501 201.442,353.501 201.150 C 353.501 200.859,353.684 200.550,353.906 200.465 C 354.129 200.379,354.395 199.862,354.498 199.314 C 354.600 198.767,354.810 198.319,354.963 198.319 C 355.117 198.319,355.167 198.124,355.075 197.885 C 354.980 197.635,355.026 197.523,355.185 197.621 C 355.338 197.716,355.462 197.491,355.462 197.119 C 355.462 196.748,355.714 196.217,356.022 195.938 C 356.370 195.624,356.583 195.076,356.583 194.494 C 356.583 193.848,356.713 193.557,357.003 193.557 C 357.293 193.557,357.423 193.265,357.423 192.610 C 357.423 191.898,357.562 191.626,357.983 191.515 C 358.393 191.408,358.543 191.133,358.543 190.494 C 358.543 189.974,358.714 189.553,358.964 189.457 C 359.258 189.344,359.384 188.885,359.384 187.925 C 359.384 186.741,359.460 186.555,359.944 186.555 C 360.399 186.555,360.504 186.368,360.504 185.563 C 360.504 184.958,360.723 184.336,361.064 183.969 C 361.383 183.627,361.625 182.981,361.625 182.470 C 361.625 181.931,361.792 181.508,362.045 181.411 C 362.334 181.300,362.465 180.848,362.465 179.955 C 362.465 179.084,362.648 178.427,363.025 177.948 C 363.411 177.457,363.585 176.811,363.585 175.873 C 363.585 174.848,363.690 174.510,364.006 174.510 C 364.323 174.510,364.426 174.167,364.426 173.109 C 364.426 172.082,364.575 171.559,364.986 171.148 C 365.447 170.688,365.546 170.215,365.546 168.487 C 365.546 166.807,365.630 166.387,365.966 166.387 C 366.306 166.387,366.387 165.939,366.387 164.038 C 366.387 161.926,366.443 161.675,366.947 161.543 C 367.441 161.414,367.507 161.161,367.507 159.410 C 367.507 157.610,367.560 157.423,368.067 157.423 C 368.521 157.423,368.627 157.236,368.627 156.443 C 368.627 155.758,368.754 155.462,369.048 155.462 C 369.341 155.462,369.468 155.167,369.468 154.482 C 369.468 153.688,369.574 153.501,370.028 153.501 C 370.339 153.501,370.588 153.315,370.588 153.081 C 370.588 152.850,370.777 152.661,371.008 152.661 C 371.242 152.661,371.429 152.412,371.429 152.101 C 371.429 151.727,371.615 151.541,371.989 151.541 C 372.362 151.541,372.549 151.354,372.549 150.980 C 372.549 150.568,372.736 150.420,373.258 150.420 C 373.648 150.420,374.040 150.231,374.128 150.000 C 374.231 149.733,374.662 149.580,375.313 149.580 C 376.032 149.580,376.440 149.414,376.686 149.020 C 376.967 148.569,377.339 148.459,378.583 148.459 C 379.699 148.459,380.174 148.343,380.291 148.039 C 380.400 147.754,380.847 147.619,381.680 147.619 C 382.605 147.619,382.995 147.481,383.258 147.059 C 383.492 146.685,383.912 146.499,384.521 146.499 C 385.107 146.499,385.434 146.361,385.434 146.115 C 385.434 145.866,385.892 145.680,386.737 145.584 C 387.521 145.496,388.140 145.258,388.292 144.988 C 388.437 144.728,388.904 144.538,389.396 144.538 C 390.013 144.538,390.289 144.383,390.395 143.978 C 390.476 143.669,390.763 143.417,391.035 143.417 C 391.306 143.417,391.685 143.228,391.877 142.997 C 392.069 142.766,392.474 142.577,392.778 142.577 C 393.081 142.577,393.388 142.356,393.459 142.087 C 393.529 141.817,394.159 141.345,394.859 141.036 C 395.558 140.728,396.249 140.256,396.394 139.986 C 396.539 139.716,396.843 139.496,397.069 139.496 C 397.294 139.496,397.479 139.335,397.479 139.138 C 397.479 138.941,397.731 138.564,398.039 138.300 C 398.347 138.036,398.599 137.504,398.599 137.118 C 398.599 136.679,398.758 136.415,399.020 136.415 C 399.253 136.415,399.440 136.166,399.440 135.854 C 399.440 135.546,399.566 135.294,399.720 135.294 C 399.896 135.294,400.000 133.473,400.000 130.392 C 400.000 127.311,399.896 125.490,399.720 125.490 C 399.566 125.490,399.440 125.049,399.440 124.510 C 399.440 123.825,399.313 123.529,399.020 123.529 C 398.789 123.529,398.599 123.340,398.599 123.109 C 398.599 122.876,398.350 122.689,398.039 122.689 C 397.666 122.689,397.479 122.502,397.479 122.129 C 397.479 121.818,397.292 121.569,397.059 121.569 C 396.828 121.569,396.639 121.368,396.639 121.122 C 396.639 120.877,396.387 120.610,396.078 120.529 C 395.770 120.449,395.518 120.208,395.518 119.995 C 395.518 119.782,395.266 119.608,394.958 119.608 C 394.650 119.608,394.398 119.432,394.398 119.218 C 394.398 118.789,393.809 118.487,392.974 118.487 C 392.679 118.487,392.437 118.298,392.437 118.067 C 392.437 117.774,392.141 117.647,391.457 117.647 C 390.663 117.647,390.476 117.540,390.476 117.087 C 390.476 116.633,390.289 116.527,389.496 116.527 C 388.811 116.527,388.515 116.400,388.515 116.106 C 388.515 115.806,388.209 115.686,387.438 115.686 C 386.717 115.686,386.194 115.501,385.854 115.126 C 385.540 114.779,384.992 114.566,384.410 114.566 C 383.799 114.566,383.473 114.431,383.473 114.178 C 383.473 113.696,382.611 113.454,380.874 113.449 C 379.944 113.447,379.485 113.317,379.373 113.025 C 379.260 112.731,378.801 112.605,377.841 112.605 C 376.856 112.605,376.471 112.495,376.471 112.215 C 376.471 111.792,375.884 111.485,375.077 111.485 C 374.798 111.485,374.497 111.296,374.409 111.064 C 374.314 110.819,373.895 110.644,373.398 110.644 C 372.736 110.644,372.549 110.521,372.549 110.084 C 372.549 109.711,372.362 109.524,371.989 109.524 C 371.678 109.524,371.429 109.337,371.429 109.104 C 371.429 108.873,371.254 108.683,371.040 108.683 C 370.817 108.683,370.572 108.265,370.467 107.703 C 370.357 107.116,370.119 106.723,369.875 106.723 C 369.651 106.723,369.468 106.471,369.468 106.162 C 369.468 105.854,369.295 105.602,369.084 105.602 C 368.835 105.602,368.648 105.142,368.552 104.289 C 368.469 103.553,368.207 102.831,367.956 102.647 C 367.627 102.407,367.507 101.851,367.507 100.573 C 367.507 99.063,367.431 98.807,366.947 98.681 C 366.440 98.548,366.387 98.299,366.387 96.046 C 366.387 94.021,366.308 93.557,365.966 93.557 C 365.633 93.557,365.546 93.153,365.546 91.597 C 365.546 89.823,365.493 89.636,364.986 89.636 C 364.480 89.636,364.426 89.449,364.426 87.705 C 364.426 86.247,364.323 85.735,364.006 85.613 C 363.716 85.502,363.585 85.049,363.585 84.156 C 363.585 83.096,363.484 82.834,363.025 82.714 C 362.553 82.591,362.465 82.332,362.465 81.060 C 362.465 79.970,362.359 79.552,362.081 79.552 C 361.832 79.552,361.646 79.094,361.551 78.249 C 361.462 77.465,361.225 76.846,360.954 76.694 C 360.695 76.549,360.504 76.082,360.504 75.590 C 360.504 74.973,360.349 74.697,359.944 74.591 C 359.490 74.472,359.384 74.209,359.384 73.208 C 359.384 72.367,359.249 71.920,358.964 71.810 C 358.732 71.721,358.543 71.410,358.543 71.118 C 358.543 70.827,358.291 70.336,357.983 70.028 C 357.675 69.720,357.423 69.294,357.423 69.082 C 357.423 68.870,357.234 68.539,357.003 68.347 C 356.772 68.156,356.583 67.729,356.583 67.400 C 356.583 67.071,356.331 66.644,356.022 66.452 C 355.706 66.254,355.462 65.798,355.462 65.404 C 355.462 65.020,355.338 64.706,355.186 64.706 C 355.034 64.706,354.725 64.265,354.500 63.725 C 354.275 63.186,353.958 62.745,353.796 62.745 C 353.634 62.745,353.501 62.493,353.501 62.185 C 353.501 61.811,353.315 61.625,352.941 61.625 C 352.488 61.625,352.381 61.438,352.381 60.644 C 352.381 59.996,352.250 59.664,351.993 59.664 C 351.780 59.664,351.540 59.412,351.459 59.104 C 351.379 58.796,351.112 58.543,350.867 58.543 C 350.621 58.543,350.420 58.361,350.420 58.137 C 350.420 57.914,350.260 57.630,350.064 57.507 C 349.868 57.384,349.556 56.936,349.370 56.513 C 349.184 56.089,348.903 55.742,348.746 55.742 C 348.588 55.742,348.459 55.490,348.459 55.182 C 348.459 54.871,348.273 54.622,348.039 54.622 C 347.808 54.622,347.619 54.421,347.619 54.175 C 347.619 53.930,347.367 53.663,347.059 53.583 C 346.751 53.502,346.499 53.262,346.499 53.049 C 346.499 52.835,346.246 52.661,345.938 52.661 C 345.565 52.661,345.378 52.474,345.378 52.101 C 345.378 51.790,345.191 51.541,344.958 51.541 C 344.727 51.541,344.538 51.340,344.538 51.094 C 344.538 50.849,344.286 50.582,343.978 50.501 C 343.669 50.421,343.417 50.180,343.417 49.967 C 343.417 49.754,343.228 49.580,342.997 49.580 C 342.766 49.580,342.577 49.379,342.577 49.133 C 342.577 48.888,342.325 48.621,342.017 48.541 C 341.709 48.460,341.457 48.220,341.457 48.007 C 341.457 47.793,341.268 47.619,341.036 47.619 C 340.805 47.619,340.616 47.426,340.616 47.190 C 340.616 46.954,340.396 46.680,340.126 46.581 C 339.856 46.482,339.535 46.234,339.412 46.030 C 339.289 45.825,338.816 45.658,338.361 45.658 C 337.722 45.658,337.535 45.532,337.535 45.098 C 337.535 44.725,337.348 44.538,336.975 44.538 C 336.667 44.538,336.412 44.380,336.410 44.188 C 336.404 43.761,335.195 42.577,334.764 42.577 C 334.594 42.577,334.202 42.325,333.894 42.017 C 333.585 41.709,333.144 41.457,332.913 41.457 C 332.682 41.457,332.493 41.268,332.493 41.036 C 332.493 40.743,332.197 40.616,331.513 40.616 C 330.719 40.616,330.532 40.510,330.532 40.056 C 330.532 39.683,330.345 39.496,329.972 39.496 C 329.661 39.496,329.412 39.309,329.412 39.076 C 329.412 38.782,329.116 38.655,328.431 38.655 C 327.638 38.655,327.451 38.549,327.451 38.095 C 327.451 37.645,327.264 37.535,326.503 37.535 C 325.780 37.535,325.520 37.397,325.404 36.955 C 325.281 36.484,325.089 36.400,324.391 36.510 C 323.682 36.622,323.529 36.551,323.529 36.110 C 323.529 35.688,323.328 35.574,322.582 35.574 C 321.870 35.574,321.598 35.435,321.487 35.014 C 321.382 34.612,321.105 34.454,320.504 34.454 C 320.019 34.454,319.600 34.277,319.507 34.034 C 319.412 33.788,318.993 33.613,318.496 33.613 C 318.021 33.613,317.401 33.367,317.087 33.053 C 316.740 32.706,316.153 32.493,315.546 32.493 C 314.862 32.493,314.566 32.366,314.566 32.073 C 314.566 31.750,314.208 31.653,313.025 31.653 C 311.671 31.653,311.485 31.585,311.485 31.092 C 311.485 30.600,311.298 30.532,309.944 30.532 C 308.819 30.532,308.403 30.428,308.403 30.145 C 308.403 29.718,307.571 29.421,306.353 29.416 C 305.918 29.413,305.373 29.223,305.142 28.992 C 304.864 28.713,304.165 28.571,303.075 28.571 C 301.802 28.571,301.367 28.461,301.156 28.084 C 300.940 27.699,300.408 27.576,298.621 27.494 C 296.922 27.417,296.359 27.294,296.359 27.001 C 296.359 26.692,295.750 26.611,293.450 26.611 C 290.777 26.611,290.530 26.565,290.395 26.050 C 290.258 25.528,290.013 25.490,286.751 25.490 C 283.900 25.490,283.223 25.412,283.092 25.070 C 282.955 24.713,281.919 24.650,276.151 24.650 C 270.088 24.650,269.315 24.598,268.830 24.160 C 268.318 23.696,264.182 23.666,191.527 23.598 C 118.882 23.530,114.746 23.500,114.409 23.038 C 114.095 22.609,113.405 22.538,108.777 22.456 C 104.584 22.383,103.455 22.282,103.277 21.966 C 103.098 21.647,102.116 21.569,98.319 21.569 C 94.102 21.569,93.555 21.515,93.311 21.078 C 93.072 20.650,92.476 20.577,88.554 20.499 C 85.088 20.430,83.995 20.319,83.738 20.009 C 83.483 19.702,82.623 19.608,80.078 19.608 C 77.124 19.608,76.688 19.545,76.190 19.048 C 75.698 18.555,75.257 18.487,72.549 18.487 C 69.997 18.487,69.468 18.415,69.468 18.067 C 69.468 17.726,69.008 17.647,67.014 17.647 C 64.864 17.647,64.517 17.578,64.211 17.087 C 63.910 16.606,63.557 16.527,61.723 16.527 C 60.022 16.527,59.513 16.428,59.232 16.043 C 58.965 15.678,58.354 15.533,56.729 15.451 C 55.234 15.376,54.535 15.225,54.431 14.954 C 54.324 14.675,53.739 14.566,52.351 14.566 C 50.887 14.566,50.420 14.471,50.420 14.176 C 50.420 13.638,49.792 13.445,48.046 13.445 C 46.982 13.445,46.513 13.326,46.397 13.025 C 46.277 12.712,45.778 12.605,44.439 12.605 C 42.878 12.605,42.623 12.532,42.496 12.045 C 42.374 11.579,42.114 11.485,40.953 11.485 C 39.969 11.485,39.508 11.360,39.395 11.064 C 39.280 10.766,38.804 10.642,37.754 10.635 C 36.357 10.627,35.085 10.106,35.485 9.706 C 35.586 9.606,34.953 9.524,34.080 9.524 C 32.910 9.524,32.493 9.421,32.493 9.134 C 32.493 8.630,31.878 8.403,30.509 8.403 C 29.738 8.403,29.412 8.283,29.412 7.998 C 29.412 7.706,28.999 7.569,27.941 7.508 C 26.858 7.445,26.471 7.312,26.471 7.003 C 26.471 6.721,26.131 6.554,25.441 6.497 C 24.875 6.450,24.261 6.229,24.077 6.007 C 23.892 5.784,23.282 5.602,22.722 5.602 C 22.007 5.602,21.599 5.435,21.354 5.042 C 21.088 4.617,20.700 4.482,19.746 4.482 C 18.814 4.482,18.487 4.373,18.487 4.062 C 18.487 3.739,18.129 3.641,16.947 3.641 C 15.570 3.641,15.406 3.579,15.406 3.055 C 15.406 2.521,15.272 2.478,13.901 2.565 C 12.724 2.640,12.427 2.578,12.541 2.283 C 12.723 1.810,12.124 1.413,11.204 1.396 C 10.819 1.389,10.260 1.198,9.960 0.971 C 9.661 0.745,9.000 0.560,8.490 0.560 C 7.980 0.560,7.563 0.434,7.563 0.280 C 7.563 0.114,6.536 0.000,5.042 0.000 L 2.521 0.000 2.521 3.120 M41.597 51.821 C 41.428 52.353,41.546 52.381,43.959 52.381 C 46.312 52.381,46.499 52.422,46.499 52.941 C 46.499 53.449,46.685 53.501,48.485 53.501 C 50.048 53.501,50.624 53.621,51.184 54.062 C 51.737 54.496,52.320 54.622,53.789 54.622 C 55.214 54.622,55.722 54.726,55.844 55.042 C 55.968 55.366,56.506 55.462,58.187 55.462 C 60.066 55.462,60.418 55.540,60.719 56.022 C 61.022 56.507,61.373 56.583,63.308 56.583 C 65.111 56.583,65.546 56.664,65.546 57.003 C 65.546 57.345,66.009 57.423,68.035 57.423 C 70.287 57.423,70.537 57.476,70.669 57.983 C 70.802 58.489,71.051 58.543,73.223 58.543 C 75.176 58.543,75.630 58.623,75.630 58.964 C 75.630 59.305,76.090 59.384,78.089 59.384 C 80.201 59.384,80.615 59.463,81.027 59.944 C 81.438 60.424,81.854 60.504,83.917 60.504 C 85.902 60.504,86.452 60.603,87.038 61.064 C 87.647 61.543,88.175 61.625,90.654 61.625 C 93.048 61.625,93.557 61.698,93.557 62.045 C 93.557 62.394,94.097 62.465,96.735 62.465 C 99.557 62.465,99.970 62.528,100.420 63.025 C 100.877 63.530,101.283 63.585,104.491 63.585 C 107.317 63.585,108.127 63.672,108.403 64.006 C 108.686 64.347,109.584 64.426,113.167 64.426 C 117.346 64.426,117.590 64.456,117.728 64.986 C 117.868 65.521,118.110 65.546,123.193 65.546 C 127.662 65.546,128.537 65.613,128.673 65.966 C 128.810 66.324,129.856 66.387,135.705 66.387 C 142.204 66.387,142.607 66.417,143.137 66.947 C 143.677 67.487,144.071 67.507,154.110 67.507 C 163.633 67.507,164.568 67.549,165.063 67.997 C 165.573 68.459,168.178 68.492,209.903 68.574 C 255.291 68.663,259.542 68.605,259.272 67.900 C 259.039 67.293,262.392 67.354,263.071 67.969 C 263.516 68.371,264.730 68.448,272.477 68.565 C 279.605 68.674,281.417 68.777,281.597 69.084 C 281.762 69.368,282.544 69.468,284.608 69.468 C 287.021 69.468,287.470 69.543,287.955 70.028 C 288.407 70.480,288.889 70.588,290.446 70.588 C 291.904 70.588,292.417 70.691,292.538 71.008 C 292.652 71.305,293.114 71.429,294.109 71.429 C 295.145 71.429,295.667 71.577,296.078 71.989 C 296.425 72.336,297.012 72.549,297.619 72.549 C 298.304 72.549,298.599 72.676,298.599 72.969 C 298.599 73.285,298.938 73.389,299.967 73.389 C 301.100 73.389,301.360 73.486,301.482 73.950 C 301.581 74.328,301.864 74.510,302.352 74.510 C 302.773 74.510,303.223 74.745,303.426 75.070 C 303.619 75.378,303.944 75.630,304.149 75.630 C 304.354 75.630,304.711 75.819,304.942 76.050 C 305.173 76.282,305.591 76.471,305.870 76.471 C 306.149 76.471,306.443 76.723,306.524 77.031 C 306.604 77.339,306.858 77.591,307.087 77.591 C 307.316 77.591,307.576 77.780,307.664 78.011 C 307.759 78.257,308.178 78.431,308.675 78.431 C 309.337 78.431,309.524 78.555,309.524 78.992 C 309.524 79.365,309.711 79.552,310.084 79.552 C 310.395 79.552,310.644 79.739,310.644 79.972 C 310.644 80.203,310.833 80.392,311.064 80.392 C 311.298 80.392,311.485 80.641,311.485 80.952 C 311.485 81.326,311.671 81.513,312.045 81.513 C 312.361 81.513,312.605 81.699,312.605 81.942 C 312.605 82.177,312.794 82.443,313.025 82.532 C 313.256 82.620,313.445 82.869,313.445 83.083 C 313.445 83.298,313.697 83.473,314.006 83.473 C 314.443 83.473,314.566 83.660,314.566 84.323 C 314.566 84.809,314.741 85.239,314.975 85.329 C 315.201 85.415,315.461 85.726,315.554 86.020 C 315.648 86.314,315.905 86.555,316.125 86.555 C 316.346 86.555,316.529 86.712,316.533 86.905 C 316.536 87.097,316.786 87.570,317.087 87.955 C 317.388 88.340,317.637 88.876,317.641 89.146 C 317.644 89.415,317.805 89.604,317.997 89.566 C 318.216 89.522,318.380 89.889,318.434 90.546 C 318.502 91.369,318.639 91.597,319.065 91.597 C 319.493 91.597,319.608 91.793,319.608 92.523 C 319.608 93.033,319.793 93.695,320.019 93.994 C 320.245 94.293,320.434 94.959,320.439 95.474 C 320.446 96.171,320.592 96.449,321.008 96.557 C 321.472 96.679,321.569 96.940,321.569 98.072 C 321.569 99.101,321.673 99.440,321.989 99.440 C 322.319 99.440,322.409 99.829,322.409 101.258 C 322.409 102.773,322.502 103.135,322.969 103.426 C 323.452 103.728,323.529 104.080,323.529 105.959 C 323.529 107.542,323.634 108.181,323.911 108.287 C 324.192 108.395,324.344 109.409,324.486 112.130 C 324.629 114.846,324.788 115.909,325.085 116.137 C 325.683 116.596,325.692 144.241,325.094 145.178 C 324.849 145.563,324.623 147.054,324.499 149.112 C 324.354 151.522,324.195 152.466,323.915 152.573 C 323.628 152.683,323.529 153.357,323.529 155.212 C 323.529 157.155,323.443 157.703,323.139 157.703 C 322.600 157.703,322.409 158.332,322.409 160.107 C 322.409 161.269,322.311 161.625,321.989 161.625 C 321.656 161.625,321.569 162.026,321.569 163.553 C 321.569 165.245,321.500 165.499,321.008 165.627 C 320.541 165.750,320.448 166.009,320.448 167.201 C 320.448 168.282,320.347 168.627,320.028 168.627 C 319.717 168.627,319.608 168.954,319.608 169.886 C 319.608 170.840,319.473 171.228,319.048 171.494 C 318.674 171.727,318.487 172.147,318.487 172.756 C 318.487 173.381,318.355 173.669,318.067 173.669 C 317.777 173.669,317.647 173.960,317.647 174.606 C 317.647 175.188,317.434 175.736,317.087 176.050 C 316.717 176.385,316.527 176.913,316.527 177.602 C 316.527 178.411,316.400 178.679,315.966 178.793 C 315.558 178.899,315.406 179.175,315.406 179.806 C 315.406 180.389,315.269 180.672,314.986 180.672 C 314.693 180.672,314.566 180.968,314.566 181.653 C 314.566 182.446,314.459 182.633,314.006 182.633 C 313.644 182.633,313.445 182.820,313.445 183.159 C 313.445 183.448,313.256 183.842,313.025 184.034 C 312.794 184.225,312.605 184.667,312.605 185.016 C 312.605 185.413,312.397 185.703,312.045 185.795 C 311.637 185.902,311.485 186.178,311.485 186.809 C 311.485 187.392,311.347 187.675,311.064 187.675 C 310.831 187.675,310.644 187.924,310.644 188.235 C 310.644 188.543,310.458 188.796,310.229 188.796 C 310.001 188.796,309.730 189.132,309.627 189.543 C 309.524 189.955,309.017 190.678,308.501 191.152 C 307.872 191.729,307.563 192.267,307.563 192.785 C 307.563 193.305,307.417 193.557,307.117 193.557 C 306.871 193.557,306.604 193.810,306.524 194.118 C 306.443 194.426,306.203 194.678,305.990 194.678 C 305.777 194.678,305.602 194.837,305.602 195.031 C 305.602 195.225,305.350 195.541,305.042 195.733 C 304.734 195.926,304.482 196.258,304.482 196.471 C 304.482 196.684,304.293 196.931,304.062 197.020 C 303.831 197.109,303.641 197.500,303.641 197.890 C 303.641 198.413,303.494 198.599,303.081 198.599 C 302.708 198.599,302.521 198.786,302.521 199.160 C 302.521 199.533,302.334 199.720,301.961 199.720 C 301.650 199.720,301.401 199.907,301.401 200.140 C 301.401 200.371,301.211 200.560,300.980 200.560 C 300.747 200.560,300.560 200.809,300.560 201.120 C 300.560 201.494,300.373 201.681,300.000 201.681 C 299.689 201.681,299.440 201.867,299.440 202.101 C 299.440 202.332,299.251 202.521,299.020 202.521 C 298.786 202.521,298.599 202.770,298.599 203.081 C 298.599 203.455,298.413 203.641,298.039 203.641 C 297.728 203.641,297.479 203.828,297.479 204.062 C 297.479 204.293,297.290 204.482,297.059 204.482 C 296.825 204.482,296.639 204.731,296.639 205.042 C 296.639 205.415,296.452 205.602,296.078 205.602 C 295.705 205.602,295.518 205.789,295.518 206.162 C 295.518 206.536,295.331 206.723,294.958 206.723 C 294.650 206.723,294.398 206.855,294.398 207.017 C 294.398 207.179,294.020 207.444,293.557 207.605 C 293.095 207.766,292.717 208.075,292.717 208.291 C 292.717 208.507,292.465 208.683,292.157 208.683 C 291.846 208.683,291.597 208.870,291.597 209.104 C 291.597 209.335,291.396 209.524,291.150 209.524 C 290.905 209.524,290.638 209.776,290.557 210.084 C 290.477 210.392,290.283 210.644,290.126 210.644 C 289.970 210.644,289.616 210.905,289.340 211.223 C 289.064 211.541,288.765 211.793,288.677 211.783 C 287.979 211.703,287.675 211.825,287.675 212.185 C 287.675 212.418,287.426 212.605,287.115 212.605 C 286.741 212.605,286.555 212.792,286.555 213.165 C 286.555 213.619,286.368 213.725,285.574 213.725 C 284.890 213.725,284.594 213.852,284.594 214.146 C 284.594 214.379,284.345 214.566,284.034 214.566 C 283.660 214.566,283.473 214.753,283.473 215.126 C 283.473 215.560,283.287 215.686,282.647 215.686 C 282.192 215.686,281.720 215.846,281.597 216.042 C 281.473 216.238,281.026 216.551,280.602 216.737 C 280.179 216.923,279.832 217.204,279.832 217.361 C 279.832 217.518,279.517 217.647,279.132 217.647 C 278.696 217.647,278.431 217.806,278.431 218.067 C 278.431 218.298,278.190 218.487,277.894 218.487 C 277.059 218.487,276.471 218.789,276.471 219.218 C 276.471 219.467,276.158 219.608,275.604 219.608 C 274.973 219.608,274.698 219.760,274.591 220.168 C 274.481 220.589,274.209 220.728,273.497 220.728 C 272.841 220.728,272.549 220.858,272.549 221.148 C 272.549 221.442,272.253 221.569,271.569 221.569 C 270.775 221.569,270.588 221.675,270.588 222.129 C 270.588 222.582,270.401 222.689,269.608 222.689 C 268.923 222.689,268.627 222.816,268.627 223.109 C 268.627 223.396,268.338 223.531,267.717 223.533 C 266.386 223.539,265.546 223.821,265.546 224.262 C 265.546 224.518,265.214 224.650,264.566 224.650 C 263.881 224.650,263.585 224.777,263.585 225.070 C 263.585 225.446,263.046 225.639,262.355 225.510 C 261.722 225.392,260.504 225.855,260.504 226.213 C 260.504 226.499,260.143 226.611,259.217 226.611 C 258.166 226.611,257.904 226.713,257.784 227.171 C 257.661 227.644,257.402 227.731,256.130 227.731 C 254.976 227.731,254.622 227.830,254.622 228.151 C 254.622 228.474,254.264 228.571,253.081 228.571 C 251.727 228.571,251.541 228.639,251.541 229.132 C 251.541 229.639,251.354 229.692,249.580 229.692 C 248.024 229.692,247.619 229.779,247.619 230.112 C 247.619 230.442,247.230 230.532,245.801 230.532 C 244.286 230.532,243.924 230.626,243.632 231.092 C 243.331 231.575,242.979 231.653,241.100 231.653 C 239.419 231.653,238.881 231.749,238.757 232.073 C 238.636 232.387,238.128 232.494,236.735 232.497 C 234.495 232.501,233.613 232.707,233.613 233.226 C 233.613 233.535,232.923 233.613,230.226 233.613 C 227.074 233.613,226.828 233.652,226.692 234.174 C 226.553 234.703,226.310 234.734,222.250 234.734 C 218.777 234.734,217.911 234.812,217.726 235.143 C 217.535 235.485,216.028 235.565,208.446 235.633 C 200.204 235.707,199.362 235.758,199.036 236.204 C 198.538 236.886,196.781 236.847,195.875 236.134 C 195.233 235.629,194.738 235.574,190.850 235.574 C 187.275 235.574,186.509 235.502,186.376 235.154 C 186.245 234.813,185.590 234.734,182.916 234.734 C 179.853 234.734,179.607 234.694,179.471 234.174 C 179.338 233.665,179.089 233.613,176.751 233.613 C 174.602 233.613,174.061 233.521,173.466 233.053 C 172.926 232.629,172.329 232.493,171.005 232.493 C 169.792 232.493,169.149 232.364,168.908 232.073 C 168.656 231.770,167.991 231.653,166.525 231.653 C 164.727 231.653,164.474 231.588,164.345 231.092 C 164.225 230.633,163.963 230.532,162.891 230.532 C 162.103 230.532,161.418 230.365,161.164 230.112 C 160.887 229.835,160.190 229.692,159.116 229.692 C 157.724 229.692,157.467 229.611,157.342 229.132 C 157.222 228.673,156.960 228.571,155.900 228.571 C 155.007 228.571,154.554 228.441,154.443 228.151 C 154.331 227.859,153.875 227.731,152.944 227.731 C 151.842 227.731,151.580 227.632,151.459 227.171 C 151.338 226.705,151.077 226.611,149.919 226.611 C 148.760 226.611,148.500 226.516,148.378 226.050 C 148.273 225.649,147.996 225.490,147.399 225.490 C 146.942 225.490,146.410 225.301,146.218 225.070 C 146.006 224.814,145.392 224.650,144.644 224.650 C 143.604 224.650,143.417 224.565,143.417 224.090 C 143.417 223.636,143.231 223.529,142.437 223.529 C 141.752 223.529,141.457 223.403,141.457 223.109 C 141.457 222.819,141.165 222.689,140.509 222.689 C 139.797 222.689,139.525 222.550,139.415 222.129 C 139.308 221.719,139.033 221.569,138.393 221.569 C 137.873 221.569,137.452 221.398,137.356 221.148 C 137.266 220.915,136.850 220.728,136.417 220.728 C 135.875 220.728,135.595 220.559,135.493 220.168 C 135.388 219.766,135.111 219.608,134.510 219.608 C 134.039 219.608,133.606 219.431,133.518 219.203 C 133.433 218.981,132.915 218.714,132.368 218.612 C 131.795 218.504,131.373 218.260,131.373 218.036 C 131.373 217.778,131.042 217.647,130.392 217.647 C 129.599 217.647,129.412 217.540,129.412 217.087 C 129.412 216.770,129.225 216.527,128.983 216.527 C 128.747 216.527,128.481 216.338,128.393 216.106 C 128.301 215.867,127.883 215.686,127.421 215.686 C 126.880 215.686,126.611 215.544,126.611 215.257 C 126.611 215.021,126.390 214.747,126.120 214.648 C 125.851 214.549,125.529 214.301,125.406 214.097 C 125.283 213.893,124.810 213.725,124.356 213.725 C 123.716 213.725,123.529 213.599,123.529 213.165 C 123.529 212.792,123.343 212.605,122.969 212.605 C 122.661 212.605,122.409 212.422,122.409 212.198 C 122.409 211.954,122.015 211.716,121.429 211.606 C 120.867 211.501,120.448 211.256,120.448 211.033 C 120.448 210.819,120.259 210.644,120.028 210.644 C 119.797 210.644,119.608 210.451,119.608 210.215 C 119.608 209.979,119.387 209.705,119.118 209.606 C 118.848 209.507,118.527 209.259,118.403 209.055 C 118.280 208.851,118.060 208.683,117.913 208.683 C 117.767 208.683,117.395 208.431,117.087 208.123 C 116.779 207.815,116.275 207.563,115.966 207.563 C 115.655 207.563,115.406 207.376,115.406 207.143 C 115.406 206.912,115.217 206.723,114.986 206.723 C 114.753 206.723,114.566 206.474,114.566 206.162 C 114.566 205.789,114.379 205.602,114.006 205.602 C 113.697 205.602,113.445 205.483,113.445 205.337 C 113.445 204.969,112.185 203.641,111.835 203.641 C 111.678 203.641,111.484 203.389,111.403 203.081 C 111.323 202.773,111.056 202.521,110.811 202.521 C 110.565 202.521,110.364 202.332,110.364 202.101 C 110.364 201.870,110.190 201.681,109.977 201.681 C 109.764 201.681,109.523 201.429,109.443 201.120 C 109.362 200.812,109.095 200.560,108.850 200.560 C 108.604 200.560,108.403 200.371,108.403 200.140 C 108.403 199.909,108.229 199.720,108.016 199.720 C 107.803 199.720,107.562 199.468,107.482 199.160 C 107.401 198.852,107.134 198.599,106.889 198.599 C 106.643 198.599,106.443 198.480,106.443 198.334 C 106.443 197.948,105.174 196.639,104.800 196.639 C 104.625 196.639,104.482 196.387,104.482 196.078 C 104.482 195.705,104.295 195.518,103.922 195.518 C 103.613 195.518,103.361 195.338,103.361 195.118 C 103.361 194.898,103.189 194.545,102.978 194.335 C 102.767 194.124,102.507 193.674,102.399 193.334 C 102.291 192.995,102.023 192.717,101.802 192.717 C 101.581 192.717,101.401 192.465,101.401 192.157 C 101.401 191.846,101.214 191.597,100.980 191.597 C 100.749 191.597,100.560 191.409,100.560 191.179 C 100.560 190.949,100.308 190.604,100.000 190.411 C 99.692 190.219,99.440 189.826,99.440 189.538 C 99.440 188.940,98.354 187.687,97.829 187.680 C 97.627 187.677,97.479 187.316,97.479 186.826 C 97.479 186.330,97.304 185.910,97.059 185.816 C 96.828 185.727,96.639 185.483,96.639 185.274 C 96.639 185.065,96.387 184.759,96.078 184.594 C 95.712 184.398,95.518 184.007,95.518 183.464 C 95.518 182.820,95.392 182.633,94.958 182.633 C 94.521 182.633,94.398 182.446,94.398 181.784 C 94.398 181.288,94.223 180.868,93.978 180.774 C 93.746 180.685,93.557 180.312,93.557 179.944 C 93.557 179.577,93.305 179.119,92.997 178.927 C 92.654 178.712,92.437 178.273,92.437 177.795 C 92.437 177.358,92.251 176.942,92.017 176.852 C 91.786 176.763,91.597 176.452,91.597 176.161 C 91.597 175.869,91.345 175.378,91.036 175.070 C 90.723 174.756,90.476 174.136,90.476 173.661 C 90.476 173.164,90.302 172.745,90.056 172.650 C 89.812 172.557,89.636 172.138,89.636 171.652 C 89.636 171.051,89.478 170.775,89.076 170.669 C 88.696 170.570,88.514 170.285,88.512 169.785 C 88.506 168.616,88.203 167.787,87.782 167.787 C 87.512 167.787,87.395 167.418,87.395 166.561 C 87.395 165.813,87.231 165.199,86.975 164.986 C 86.744 164.794,86.555 164.212,86.555 163.691 C 86.555 163.135,86.335 162.526,86.022 162.212 C 85.157 161.347,85.082 158.543,85.924 158.543 C 86.274 158.543,86.555 158.716,86.555 158.931 C 86.555 159.421,87.421 159.655,89.256 159.660 C 90.275 159.663,90.743 159.787,90.858 160.084 C 90.982 160.409,91.524 160.504,93.236 160.504 C 95.217 160.504,95.468 160.564,95.599 161.064 C 95.731 161.569,95.981 161.625,98.123 161.625 C 99.978 161.625,100.536 161.717,100.662 162.045 C 100.786 162.370,101.331 162.465,103.072 162.465 C 104.949 162.465,105.415 162.558,105.882 163.025 C 106.364 163.507,106.816 163.585,109.104 163.585 C 111.282 163.585,111.765 163.662,111.765 164.006 C 111.765 164.356,112.321 164.426,115.093 164.426 C 118.234 164.426,118.431 164.459,118.575 165.011 C 118.733 165.616,124.518 165.775,125.100 165.190 C 125.687 164.601,125.573 161.625,124.964 161.625 C 124.631 161.625,124.370 161.446,124.370 161.217 C 124.370 160.975,123.980 160.737,123.409 160.629 C 122.880 160.530,122.380 160.272,122.297 160.056 C 122.214 159.839,121.767 159.664,121.297 159.664 C 120.758 159.664,120.448 159.521,120.448 159.274 C 120.448 158.851,119.861 158.543,119.055 158.543 C 118.776 158.543,118.475 158.354,118.386 158.123 C 118.296 157.889,117.880 157.703,117.443 157.703 C 116.965 157.703,116.526 157.486,116.312 157.143 C 116.112 156.823,115.658 156.583,115.255 156.583 C 114.866 156.583,114.477 156.397,114.390 156.170 C 114.303 155.943,113.811 155.679,113.298 155.582 C 112.784 155.486,112.296 155.230,112.213 155.014 C 112.130 154.797,111.683 154.622,111.213 154.622 C 110.674 154.622,110.364 154.479,110.364 154.232 C 110.364 153.803,109.776 153.501,108.941 153.501 C 108.645 153.501,108.403 153.312,108.403 153.081 C 108.403 152.791,108.111 152.661,107.456 152.661 C 106.743 152.661,106.472 152.522,106.361 152.101 C 106.255 151.693,105.979 151.541,105.348 151.541 C 104.765 151.541,104.482 151.403,104.482 151.120 C 104.482 150.859,104.218 150.700,103.784 150.700 C 103.389 150.700,102.934 150.457,102.736 150.140 C 102.544 149.832,102.164 149.580,101.893 149.580 C 101.622 149.580,101.401 149.405,101.401 149.191 C 101.401 148.968,100.982 148.723,100.420 148.618 C 99.833 148.508,99.440 148.270,99.440 148.027 C 99.440 147.779,99.166 147.619,98.742 147.619 C 98.347 147.619,97.892 147.376,97.694 147.059 C 97.502 146.751,97.182 146.499,96.983 146.499 C 96.784 146.499,96.549 146.310,96.460 146.078 C 96.360 145.819,95.935 145.658,95.348 145.658 C 94.585 145.658,94.398 145.548,94.398 145.098 C 94.398 144.790,94.222 144.538,94.008 144.538 C 93.793 144.538,93.545 144.349,93.456 144.118 C 93.364 143.877,92.946 143.697,92.478 143.697 C 91.898 143.697,91.620 143.536,91.515 143.137 C 91.435 142.829,91.168 142.577,90.923 142.577 C 90.677 142.577,90.476 142.394,90.476 142.170 C 90.476 141.926,90.083 141.688,89.496 141.578 C 88.934 141.473,88.515 141.228,88.515 141.005 C 88.515 140.791,88.263 140.616,87.955 140.616 C 87.582 140.616,87.395 140.430,87.395 140.056 C 87.395 139.748,87.219 139.496,87.005 139.496 C 86.790 139.496,86.542 139.307,86.453 139.076 C 86.361 138.835,85.943 138.655,85.476 138.655 C 84.895 138.655,84.617 138.494,84.513 138.095 C 84.432 137.787,84.165 137.535,83.920 137.535 C 83.674 137.535,83.473 137.346,83.473 137.115 C 83.473 136.884,83.299 136.695,83.086 136.695 C 82.873 136.695,82.632 136.443,82.552 136.134 C 82.471 135.826,82.205 135.574,81.959 135.574 C 81.713 135.574,81.513 135.385,81.513 135.154 C 81.513 134.923,81.289 134.734,81.015 134.734 C 80.741 134.734,80.301 134.482,80.037 134.174 C 79.773 133.866,79.304 133.613,78.994 133.613 C 78.618 133.613,78.431 133.428,78.431 133.053 C 78.431 132.742,78.245 132.493,78.011 132.493 C 77.780 132.493,77.591 132.304,77.591 132.073 C 77.591 131.839,77.342 131.653,77.031 131.653 C 76.657 131.653,76.471 131.466,76.471 131.092 C 76.471 130.781,76.284 130.532,76.050 130.532 C 75.819 130.532,75.630 130.343,75.630 130.112 C 75.630 129.879,75.381 129.692,75.070 129.692 C 74.697 129.692,74.510 129.505,74.510 129.132 C 74.510 128.758,74.323 128.571,73.950 128.571 C 73.633 128.571,73.389 128.385,73.389 128.142 C 73.389 127.907,73.200 127.641,72.969 127.552 C 72.738 127.464,72.549 127.215,72.549 127.001 C 72.549 126.786,72.297 126.611,71.989 126.611 C 71.615 126.611,71.429 126.424,71.429 126.050 C 71.429 125.739,71.242 125.490,71.008 125.490 C 70.777 125.490,70.588 125.301,70.588 125.070 C 70.588 124.837,70.339 124.650,70.028 124.650 C 69.655 124.650,69.468 124.463,69.468 124.090 C 69.468 123.778,69.281 123.529,69.048 123.529 C 68.817 123.529,68.627 123.340,68.627 123.109 C 68.627 122.876,68.378 122.689,68.067 122.689 C 67.694 122.689,67.507 122.502,67.507 122.129 C 67.507 121.821,67.255 121.317,66.947 121.008 C 66.639 120.700,66.387 120.259,66.387 120.028 C 66.387 119.797,66.197 119.608,65.966 119.608 C 65.735 119.608,65.546 119.407,65.546 119.161 C 65.546 118.916,65.294 118.649,64.986 118.569 C 64.678 118.488,64.426 118.248,64.426 118.035 C 64.426 117.821,64.251 117.647,64.037 117.647 C 63.814 117.647,63.569 117.228,63.464 116.667 C 63.354 116.080,63.116 115.686,62.872 115.686 C 62.648 115.686,62.465 115.434,62.465 115.126 C 62.465 114.818,62.304 114.566,62.106 114.566 C 61.909 114.566,61.591 114.219,61.400 113.796 C 60.684 112.205,60.181 111.485,59.789 111.485 C 59.529 111.485,59.384 111.194,59.384 110.674 C 59.384 110.212,59.203 109.795,58.964 109.703 C 58.732 109.614,58.543 109.348,58.543 109.112 C 58.543 108.870,58.300 108.683,57.983 108.683 C 57.533 108.683,57.423 108.497,57.423 107.733 C 57.423 107.147,57.262 106.721,57.003 106.621 C 56.772 106.533,56.583 106.209,56.583 105.902 C 56.583 105.595,56.348 105.118,56.062 104.843 C 55.775 104.567,55.458 103.995,55.356 103.571 C 55.255 103.148,55.048 102.801,54.897 102.801 C 54.745 102.801,54.622 102.549,54.622 102.241 C 54.622 101.933,54.370 101.429,54.062 101.120 C 53.754 100.812,53.501 100.307,53.501 99.997 C 53.501 99.688,53.249 99.218,52.941 98.955 C 52.628 98.686,52.381 98.128,52.381 97.688 C 52.381 97.247,52.196 96.830,51.961 96.740 C 51.717 96.646,51.541 96.227,51.541 95.742 C 51.541 95.141,51.383 94.864,50.980 94.759 C 50.564 94.650,50.420 94.377,50.420 93.695 C 50.420 93.180,50.253 92.713,50.040 92.631 C 49.831 92.551,49.588 91.949,49.500 91.293 C 49.412 90.637,49.142 89.990,48.900 89.855 C 48.632 89.705,48.459 89.229,48.459 88.642 C 48.459 87.969,48.332 87.675,48.039 87.675 C 47.736 87.675,47.619 87.364,47.619 86.555 C 47.619 85.808,47.432 85.247,47.059 84.874 C 46.687 84.502,46.499 83.940,46.499 83.203 C 46.499 82.379,46.354 82.015,45.938 81.793 C 45.494 81.555,45.378 81.206,45.378 80.102 C 45.378 79.053,45.275 78.711,44.958 78.711 C 44.639 78.711,44.538 78.366,44.538 77.285 C 44.538 76.093,44.445 75.834,43.978 75.711 C 43.486 75.583,43.417 75.329,43.417 73.637 C 43.417 72.110,43.330 71.709,42.997 71.709 C 42.664 71.709,42.577 71.306,42.577 69.767 C 42.577 68.071,42.506 67.802,42.017 67.647 C 41.518 67.489,41.457 67.223,41.457 65.238 C 41.457 63.514,41.361 62.971,41.036 62.846 C 40.708 62.720,40.615 62.155,40.612 60.264 C 40.608 57.481,40.430 56.583,39.883 56.583 C 39.582 56.583,39.496 56.024,39.496 54.079 L 39.496 51.574 40.546 51.465 C 41.124 51.404,41.637 51.333,41.686 51.308 C 41.734 51.282,41.694 51.513,41.597 51.821 M277.591 92.017 C 277.591 92.319,277.282 92.437,276.493 92.437 C 275.125 92.437,274.510 92.663,274.510 93.167 C 274.510 93.426,274.181 93.557,273.529 93.557 C 272.736 93.557,272.549 93.664,272.549 94.118 C 272.549 94.491,272.362 94.678,271.989 94.678 C 271.681 94.678,271.429 94.851,271.429 95.063 C 271.429 95.275,271.062 95.522,270.613 95.611 C 269.988 95.736,269.754 95.974,269.610 96.627 C 269.508 97.095,269.244 97.479,269.025 97.479 C 268.807 97.479,268.627 97.731,268.627 98.039 C 268.627 98.413,268.441 98.599,268.067 98.599 C 267.614 98.599,267.507 98.786,267.507 99.580 C 267.507 100.251,267.378 100.560,267.100 100.560 C 266.850 100.560,266.618 100.966,266.500 101.611 C 266.394 102.188,266.136 102.910,265.927 103.214 C 265.337 104.070,265.374 117.241,265.966 117.468 C 266.197 117.557,266.387 117.880,266.387 118.185 C 266.387 118.885,266.960 120.168,267.272 120.168 C 267.401 120.168,267.507 120.483,267.507 120.868 C 267.507 121.382,267.656 121.569,268.067 121.569 C 268.449 121.569,268.627 121.755,268.627 122.155 C 268.627 123.205,271.034 125.490,272.141 125.490 C 272.366 125.490,272.549 125.742,272.549 126.050 C 272.549 126.504,272.736 126.611,273.529 126.611 C 274.214 126.611,274.510 126.737,274.510 127.031 C 274.510 127.352,274.864 127.451,276.018 127.451 C 277.290 127.451,277.549 127.539,277.672 128.011 C 277.812 128.547,278.054 128.571,283.170 128.571 C 288.174 128.571,288.552 128.535,289.001 128.011 C 289.337 127.618,289.827 127.451,290.644 127.451 C 291.337 127.451,291.949 127.281,292.157 127.031 C 292.349 126.800,292.742 126.611,293.031 126.611 C 293.321 126.611,293.810 126.359,294.118 126.050 C 294.426 125.742,294.867 125.490,295.098 125.490 C 295.329 125.490,295.518 125.316,295.518 125.103 C 295.518 124.890,295.770 124.649,296.078 124.569 C 296.387 124.488,296.639 124.221,296.639 123.976 C 296.639 123.730,296.828 123.529,297.059 123.529 C 297.290 123.529,297.479 123.292,297.479 123.002 C 297.479 122.710,297.729 122.409,298.039 122.328 C 298.347 122.247,298.599 121.994,298.599 121.765 C 298.599 121.536,298.789 121.276,299.020 121.187 C 299.251 121.099,299.440 120.737,299.440 120.384 C 299.440 120.031,299.692 119.585,300.000 119.393 C 300.422 119.129,300.560 118.740,300.560 117.815 C 300.560 116.981,300.695 116.535,300.980 116.425 C 301.337 116.289,301.401 115.304,301.401 109.953 C 301.401 104.529,301.341 103.641,300.980 103.641 C 300.662 103.641,300.560 103.296,300.560 102.215 C 300.560 101.023,300.468 100.764,300.000 100.641 C 299.579 100.531,299.440 100.259,299.440 99.547 C 299.440 98.964,299.302 98.599,299.081 98.599 C 298.884 98.599,298.566 98.253,298.375 97.829 C 297.673 96.271,297.159 95.518,296.798 95.518 C 296.594 95.518,296.270 95.329,296.078 95.098 C 295.887 94.867,295.430 94.678,295.064 94.678 C 294.585 94.678,294.398 94.521,294.398 94.118 C 294.398 93.668,294.211 93.557,293.450 93.557 C 292.738 93.557,292.466 93.418,292.356 92.997 C 292.237 92.542,291.974 92.437,290.953 92.437 C 290.094 92.437,289.645 92.304,289.535 92.017 C 289.398 91.662,288.460 91.597,283.482 91.597 C 278.432 91.597,277.591 91.657,277.591 92.017 " stroke="none" fill="#3494f4" fill-rule="evenodd"></path><path id="path1" d="" stroke="none" fill="#3894f4" fill-rule="evenodd"></path><path id="path2" d="" stroke="none" fill="#3894f4" fill-rule="evenodd"></path><path id="path3" d="" stroke="none" fill="#3894f4" fill-rule="evenodd"></path><path id="path4" d="" stroke="none" fill="#3894f4" fill-rule="evenodd"></path></g></svg>